# xmcd CD database file
#
# Track frame offsets:
#	150
#	12577
#	23987
#	37098
#	50144
#	63252
#	90418
#	104457
#	116528
#	130134
#	144525
#	156391
#	170269
#	182551
#	196475
#	221286
#
# Disc length: 3138 seconds
#
# Revision: 1
# Processed by: cddbd v1.5.1PL0 Copyright (c) Steve Scherf et al.
# Submitted via: CDex 1.51
#
DISCID=e20c4010
DTITLE=Jimmie Lunceford - The Great Big Band Collection [Joan #7152, 2002]
DYEAR=1935
DGENRE=Jazz
TTITLE0=Cheatin' On Me
TTITLE1=The Lonesome Road
TTITLE2=Mandy
TTITLE3=Baby Won't You Please Come Home
TTITLE4=Uptown Blues
TTITLE5=I'm Gonna Move to the Outskirts of Town (Parts I and II)
TTITLE6=Back Door Stuff (Parts I and II)
TTITLE7=For Dancers Only
TTITLE8=Harlem Shout
TTITLE9=Four or Five times
TTITLE10=Organ Grinder's Swing
TTITLE11=Margie
TTITLE12=Le Jazz Hot
TTITLE13=T'ain't What You Do
TTITLE14=Blues In the Night
TTITLE15=Twenty-Four Robbers
EXTD=YEAR: 1935
EXTT0=
EXTT1=
EXTT2=
EXTT3=
EXTT4=
EXTT5=
EXTT6=
EXTT7=
EXTT8=
EXTT9=
EXTT10=
EXTT11=
EXTT12=
EXTT13=
EXTT14=
EXTT15=
PLAYORDER=
